# xmcd
#
# Track frame offsets: 
#        150
#        13189
#        24749
#        36134
#        49533
#        60047
#        71687
#        82222
#        94078
#        107117
#        117640
#        128812
#        138409
#        150300
#        165772
#        177900
#        190673
#        199441
#        212174
#        222960
#        236616
#        250217
#        264147
#        278718
#
# Disc length: 3854 seconds
#
# Revision: 0
# Processed by: cddbd v1.5.1PL0 Copyright (c) Steve Scherf et al.
# Submitted via: ExactAudioCopy v0.95a3
#
DISCID=4f0f0c18
DTITLE=Various Artist - Simply Country - Disc 1 
DYEAR=1900
DGENRE=
TTITLE0=Various Artist - Bill Anderson-Still
TTITLE1=Various Artist - Roger Miller-King of the Road
TTITLE2=Various Artist - Conway Twitty-Hello Darlin
TTITLE3=Various Artist - Bobby Bare-Detriot City
TTITLE4=Various Artist - Dave Dudley-Six Days on the Road
TTITLE5=Various Artist - Sandy Posey-Single Girl
TTITLE6=Various Artist - Johnny Tillotson-Send Me the Pillow
TTITLE7=Various Artist - Don Gibson-Oh Lonesome Me
TTITLE8=Various Artist - Lynn Anderson-Rose Garden
TTITLE9=Various Artist - Faron Young-Hello Walls
TTITLE10=Various Artist - Dolly Parton-Honky Tonk Angels
TTITLE11=Various Artist - Charley Pride-Kiss an Angel Good Morning
TTITLE12=Various Artist - Johnny Paycheck-Heartaches by the Numbers
TTITLE13=Various Artist - Jim Reeves-Make Believe
TTITLE14=Various Artist - Don Williams-Follow Me Back to Louisville
TTITLE15=Various Artist - Stonewall Jackson-Ol Blue
TTITLE16=Various Artist - Boxcar Willie-If Youve Got the Money
TTITLE17=Various Artist - Johnny Paycheck-Crazy Arms
TTITLE18=Various Artist - Johnny Russell-Act Naturally
TTITLE19=Various Artist - Don Williams-Where Do I Go from Here
TTITLE20=Various Artist - Faron Young-Swinging Doors
TTITLE21=Various Artist - Willie Nelson-A Moment Isn't Very Long
TTITLE22=Various Artist - Freddie Fender-Wasted Days and Nights
TTITLE23=Various Artist - Carl Perkins-Daddy Sang Bass
EXTD=
EXTT0=
EXTT1=
EXTT2=
EXTT3=
EXTT4=
EXTT5=
EXTT6=
EXTT7=
EXTT8=
EXTT9=
EXTT10=
EXTT11=
EXTT12=
EXTT13=
EXTT14=
EXTT15=
EXTT16=
EXTT17=
EXTT18=
EXTT19=
EXTT20=
EXTT21=
EXTT22=
EXTT23=
PLAYORDER=
